<svg xmlns="http://www.w3.org/2000/svg" viewBox="0 0 192 192"><defs><style>.cls-1{fill:#39b54a;}.cls-2{fill:red;}.cls-3{fill:#fff;}</style></defs><g id="EXPORT_BASE"><rect class="cls-1" width="192" height="192"/></g><g id="ON"><rect class="cls-2" x="19.68" y="19.04" width="152" height="152" rx="8.53"/><path class="cls-3" d="M112.47,47.87h21.79a9.87,9.87,0,0,1,9.87,9.87V79.53h-8.36V66.11a9.88,9.88,0,0,0-9.88-9.88H112.47Z" transform="translate(0 -0.25)"/><path class="cls-3" d="M144.13,112.47v21.79c0,.1,0,.2,0,.3l-8.37-8.36c0-.11,0-.21,0-.31V112.47Z" transform="translate(0 -0.25)"/><path class="cls-3" d="M57.74,47.87H79.53v8.36H66.11l-.31,0-8.36-8.37Z" transform="translate(0 -0.25)"/><path class="cls-3" d="M79.53,144.13H57.74a9.87,9.87,0,0,1-9.87-9.87V112.47h8.36v13.42a9.88,9.88,0,0,0,9.88,9.88H79.53Z" transform="translate(0 -0.25)"/><path class="cls-3" d="M149.37,149.37a2.48,2.48,0,0,1-3.51,0l-6.61-6.61a9.73,9.73,0,0,1-5,1.37H112.47v-8.36h13.42a9.86,9.86,0,0,0,5-1.37L57.61,61.11a9.77,9.77,0,0,0-1.38,5V79.53H47.87V57.74a9.73,9.73,0,0,1,1.37-5l-6.61-6.61a2.48,2.48,0,0,1,3.51-3.51L149.37,145.86A2.48,2.48,0,0,1,149.37,149.37Z" transform="translate(0 -0.25)"/></g></svg>