<svg xmlns="http://www.w3.org/2000/svg" xmlns:xlink="http://www.w3.org/1999/xlink" viewBox="0 0 2049 2049"><defs><style>.cls-1{stroke:#000;stroke-miterlimit:10;}.cls-2{fill:url(#未命名的渐变_91);}.cls-3{fill:url(#未命名的渐变_65);}</style><linearGradient id="未命名的渐变_91" x1="471.94" y1="1153.3" x2="1834.66" y2="1153.3" gradientUnits="userSpaceOnUse"><stop offset="0" stop-color="#750000"/><stop offset="1" stop-color="red"/></linearGradient><linearGradient id="未命名的渐变_65" x1="213.33" y1="894.7" x2="1576.06" y2="894.7" gradientUnits="userSpaceOnUse"><stop offset="0" stop-color="#f2f2f2"/><stop offset="1" stop-color="#b3b3b3"/></linearGradient></defs><g id="图层_5" data-name="图层 5"><rect class="cls-1" x="0.5" y="0.5" width="2048" height="2048"/></g><g id="图层_4" data-name="图层 4"><path class="cls-2" d="M1617.64,471.94l-78.43,78.43c114.63,124.63,184.63,291,184.63,473.63,0,386.51-313.33,699.84-699.84,699.84-182.68,0-349-70-473.63-184.63l-78.43,78.43c144.73,134.66,338.78,217,552.06,217,447.72,0,810.66-363,810.66-810.67C1834.66,810.72,1752.3,616.67,1617.64,471.94Z" transform="translate(0.5 0.5)"/><path class="cls-3" d="M508.79,1497.63C370.1,1346.84,296.74,1135,333.65,907,377.46,636.39,636.39,377.46,907,333.65c228-36.91,439.8,36.45,590.59,175.14l78.43-78.43c-171-159.06-410.72-245.16-669.71-208.73-354.88,49.9-634.82,329.84-684.73,684.72-36.42,259,49.68,498.75,208.74,669.71Z" transform="translate(0.5 0.5)"/></g></svg>