<svg xmlns="http://www.w3.org/2000/svg" viewBox="0 0 192 192"><defs><style>.cls-1{fill:#39b54a;}.cls-2,.cls-3{fill:#333;}.cls-2{opacity:0.6;}</style></defs><g id="EXPORT_BASE"><rect class="cls-1" width="192" height="192"/></g><g id="OFF"><path class="cls-2" d="M22.5,22.5a8.52,8.52,0,0,0-2.5,6V163.47A8.53,8.53,0,0,0,28.53,172H163.47a8.48,8.48,0,0,0,6-2.5ZM84.63,127.44a2.42,2.42,0,0,1-2.43,2.42H53.8a2.42,2.42,0,0,1-2.43-2.42v-4.3a2.43,2.43,0,0,1,2.43-2.43H82.2a2.43,2.43,0,0,1,2.43,2.43Z" transform="translate(0 -0.25)"/><path class="cls-3" d="M163.47,20H28.53a8.48,8.48,0,0,0-6,2.5l147,147a8.48,8.48,0,0,0,2.5-6V28.53A8.53,8.53,0,0,0,163.47,20ZM140.63,69a1.4,1.4,0,0,1-1.4,1.4H128a1.4,1.4,0,0,0-1.4,1.39V84.13a1.39,1.39,0,0,1-1.39,1.39h-2.32a1.39,1.39,0,0,1-1.39-1.39V71.79a1.4,1.4,0,0,0-1.4-1.39H108.77a1.4,1.4,0,0,1-1.4-1.4V67a1.4,1.4,0,0,1,1.4-1.4h11.28a1.4,1.4,0,0,0,1.4-1.39V51.87a1.39,1.39,0,0,1,1.39-1.39h2.32a1.39,1.39,0,0,1,1.39,1.39V64.21A1.4,1.4,0,0,0,128,65.6h11.28a1.4,1.4,0,0,1,1.4,1.4Z" transform="translate(0 -0.25)"/></g></svg>