<svg xmlns="http://www.w3.org/2000/svg" viewBox="0 0 192 192"><defs><style>.cls-1{fill:#39b54a;}.cls-2{fill:#333;}</style></defs><g id="EXPORT_BASE"><rect class="cls-1" width="192" height="192"/></g><g id="Layer_4" data-name="Layer 4"><path class="cls-2" d="M47.36,164.77H35.76a8.53,8.53,0,0,1-8.53-8.53v-11.6H20v18.83A8.53,8.53,0,0,0,28.53,172H47.36Z" transform="translate(0 -0.25)"/><path class="cls-2" d="M164.77,144.64v11.6a8.53,8.53,0,0,1-8.53,8.53H144.65V172h18.82a8.53,8.53,0,0,0,8.53-8.53V144.64Z" transform="translate(0 -0.25)"/><path class="cls-2" d="M47.36,20H28.53A8.53,8.53,0,0,0,20,28.53V47.36h7.23V35.76a8.53,8.53,0,0,1,8.53-8.53h11.6Z" transform="translate(0 -0.25)"/><path class="cls-2" d="M163.47,20H144.65v7.23h11.59a8.53,8.53,0,0,1,8.53,8.53v11.6H172V28.53A8.53,8.53,0,0,0,163.47,20Z" transform="translate(0 -0.25)"/></g></svg>