<svg xmlns="http://www.w3.org/2000/svg" viewBox="0 0 800 600"><defs><style>.cls-1{fill:#8dc63f;}.cls-2{fill:#333;}</style></defs><g id="Layer_2" data-name="Layer 2"><rect class="cls-1" width="800" height="600"/></g><g id="Layer_1" data-name="Layer 1"><path class="cls-2" d="M67.46,561.27H57.11a7.62,7.62,0,0,1-7.61-7.62V543.3H43.05v16.8a7.61,7.61,0,0,0,7.61,7.61h16.8Z"/><path class="cls-2" d="M750.5,543.3v10.35a7.62,7.62,0,0,1-7.61,7.62H732.54v6.44h16.8A7.61,7.61,0,0,0,757,560.1V543.3Z"/><path class="cls-2" d="M67.46,32.29H50.66a7.61,7.61,0,0,0-7.61,7.61V56.7H49.5V46.35a7.62,7.62,0,0,1,7.61-7.62H67.46Z"/><path class="cls-2" d="M749.34,32.29h-16.8v6.44h10.35a7.62,7.62,0,0,1,7.61,7.62V56.7H757V39.9A7.61,7.61,0,0,0,749.34,32.29Z"/></g></svg>