<svg xmlns="http://www.w3.org/2000/svg" viewBox="0 0 92.56 63.24"><defs><style>.cls-1{fill:#ffde17;}.cls-2{fill:#999;}.cls-3{fill:#fff;}</style></defs><g id="vertical_align_assist"><rect class="cls-1" width="92.56" height="63.24"/></g><g id="vertical_align_bkgd"><path class="cls-2" d="M134,80.79c0,.33,0,.66,0,1s0,.66,0,1h8v-2Z" transform="translate(-49.44 -65.17)"/><path class="cls-2" d="M57.43,81.79c0-.34,0-.67,0-1h-8v2h8C57.44,82.45,57.43,82.12,57.43,81.79Z" transform="translate(-49.44 -65.17)"/><path class="cls-2" d="M134,110.79c0,.33,0,.66,0,1s0,.66,0,1h8v-2Z" transform="translate(-49.44 -65.17)"/><path class="cls-2" d="M57.43,111.79c0-.34,0-.67,0-1h-8v2h8C57.44,112.45,57.43,112.12,57.43,111.79Z" transform="translate(-49.44 -65.17)"/><path class="cls-3" d="M129.19,125.17c0,.54,0,1.07,0,1.62s0,1.08,0,1.62H142v-3.24Z" transform="translate(-49.44 -65.17)"/><path class="cls-3" d="M62.24,126.79c0-.55,0-1.08,0-1.62H49.44v3.24H62.26C62.26,127.87,62.24,127.33,62.24,126.79Z" transform="translate(-49.44 -65.17)"/><path class="cls-3" d="M129.19,65.17c0,.54,0,1.07,0,1.62s0,1.08,0,1.62H142V65.17Z" transform="translate(-49.44 -65.17)"/><path class="cls-3" d="M62.24,66.79c0-.55,0-1.08,0-1.62H49.44v3.24H62.26C62.26,67.87,62.24,67.33,62.24,66.79Z" transform="translate(-49.44 -65.17)"/></g></svg>