<svg xmlns="http://www.w3.org/2000/svg" viewBox="0 0 192.49 192.49"><defs><style>.cls-1{fill:#999;}.cls-2{fill:#fff;}</style></defs><g id="BKGND"><rect width="192.49" height="192.49"/></g><g id="horizon_align_background"><path class="cls-1" d="M2,96A93.69,93.69,0,0,1,29.56,29.56l-1.44-1.44a96,96,0,0,0,0,135.76l1.44-1.44A93.69,93.69,0,0,1,2,96Z"/><path class="cls-1" d="M163.88,28.12l-1.44,1.44a94,94,0,0,1,0,132.88l1.44,1.44a96,96,0,0,0,0-135.76Z"/><path class="cls-2" d="M153.49,40.92l11.6-11.6-2.41-2.41-11.6,11.6C151.9,39.3,152.7,40.1,153.49,40.92Z"/><path class="cls-2" d="M38.51,151.08l-11.6,11.6,2.41,2.41,11.6-11.6C40.1,152.7,39.3,151.9,38.51,151.08Z"/><path class="cls-1" d="M174.37,64.83l10.83-4.48-.93-2.25-10.83,4.48Q173.94,63.69,174.37,64.83Z"/><path class="cls-1" d="M17.61,127.1,6.79,131.58l.93,2.25,10.82-4.48C18.21,128.6,17.9,127.86,17.61,127.1Z"/><path class="cls-1" d="M174.82,126l11,4,.83-2.28-11-4C175.39,124.45,175.11,125.21,174.82,126Z"/><path class="cls-1" d="M17.17,66l-11-4-.83,2.28,11,4C16.6,67.48,16.87,66.72,17.17,66Z"/><path class="cls-2" d="M40.92,38.51l-11.6-11.6-2.41,2.41,11.6,11.6C39.3,40.1,40.1,39.3,40.92,38.51Z"/><path class="cls-2" d="M151.08,153.49l11.6,11.6,2.41-2.41-11.6-11.6C152.7,151.9,151.9,152.7,151.08,153.49Z"/></g></svg>